<?xml version="1.0" encoding="UTF-8" standalone="no"?>
<!-- Created with Inkscape (http://www.inkscape.org/) -->

<svg
   xmlns:dc="http://purl.org/dc/elements/1.1/"
   xmlns:cc="http://creativecommons.org/ns#"
   xmlns:rdf="http://www.w3.org/1999/02/22-rdf-syntax-ns#"
   xmlns:svg="http://www.w3.org/2000/svg"
   xmlns="http://www.w3.org/2000/svg"
   xmlns:sodipodi="http://sodipodi.sourceforge.net/DTD/sodipodi-0.dtd"
   xmlns:inkscape="http://www.inkscape.org/namespaces/inkscape"
   width="324.93845mm"
   height="70.294632mm"
   viewBox="0 0 324.93845 70.294632"
   version="1.1"
   id="svg6026"
   inkscape:version="0.92.1 r15371"
   sodipodi:docname="2019-en-longueur.svg">
  <defs
     id="defs6020" />
  <sodipodi:namedview
     id="base"
     pagecolor="#ffffff"
     bordercolor="#666666"
     borderopacity="1.0"
     inkscape:pageopacity="0.0"
     inkscape:pageshadow="2"
     inkscape:zoom="0.49497475"
     inkscape:cx="571.57209"
     inkscape:cy="-217.75536"
     inkscape:document-units="mm"
     inkscape:current-layer="layer1"
     showgrid="false"
     fit-margin-top="0"
     fit-margin-left="0"
     fit-margin-right="0"
     fit-margin-bottom="0"
     inkscape:window-width="1920"
     inkscape:window-height="1021"
     inkscape:window-x="0"
     inkscape:window-y="0"
     inkscape:window-maximized="1" />
  <metadata
     id="metadata6023">
    <rdf:RDF>
      <cc:Work
         rdf:about="">
        <dc:format>image/svg+xml</dc:format>
        <dc:type
           rdf:resource="http://purl.org/dc/dcmitype/StillImage" />
        <dc:title></dc:title>
      </cc:Work>
    </rdf:RDF>
  </metadata>
  <g
     inkscape:label="Calque 1"
     inkscape:groupmode="layer"
     id="layer1"
     transform="translate(277.37399,-12.388395)">
    <g
       transform="matrix(0.26458333,0,0,0.26458333,-204.08831,12.928855)"
       id="Layer_1-3-3"
       style="display:inline;fill:#666666;fill-opacity:1;stroke:#fdfdfd;enable-background:new"
       inkscape:export-xdpi="21.680178"
       inkscape:export-ydpi="21.680178"
       inkscape:export-filename="/home/tierce/NextCloudNeutrinet/Communication/Logos/exports/neutrinet_logo_text_wiki.png">
      <g
         id="g5-67-6"
         style="opacity:0.8;fill:#666666;fill-opacity:1">
        <path
           inkscape:connector-curvature="0"
           stroke-miterlimit="10"
           d="m 42.152,121.68 v 62.154 H 17.981 V 69.021 h 24.171 v 20.934 c 3.885,-7.048 9.243,-12.588 16.078,-16.618 6.832,-4.026 14.207,-6.043 22.121,-6.043 12.949,0 23.416,3.959 31.401,11.87 7.985,7.914 11.978,19.352 11.978,34.314 v 70.355 H 99.559 v -63.018 c 0,-21.15 -8.778,-31.725 -26.33,-31.725 -8.346,0 -15.613,2.772 -21.797,8.309 -6.188,5.542 -9.28,13.636 -9.28,24.281 z"
           id="path7-5-7"
           style="fill:#666666;fill-opacity:1;stroke-miterlimit:10" />
        <path
           inkscape:connector-curvature="0"
           stroke-miterlimit="10"
           d="m 200.99,67.295 c 15.68,0 28.703,4.354 39.062,13.057 10.359,8.707 15.609,20.037 15.754,33.991 l 0.216,0.432 -83.736,35.178 c 7.479,9.209 17.66,13.813 30.538,13.813 12.875,0 23.486,-5.035 31.833,-15.107 l 14.244,15.755 c -13.67,14.102 -29.782,21.149 -48.342,21.149 -16.26,0 -30.214,-5.396 -41.868,-16.187 -11.654,-10.79 -17.481,-25.034 -17.481,-42.73 0,-12.228 3.021,-22.984 9.064,-32.264 6.042,-9.28 13.522,-16.112 22.444,-20.502 8.92,-4.39 18.345,-6.585 28.272,-6.585 z m -36.472,59.781 c 0,1.871 0.071,3.237 0.216,4.1 l 63.665,-27.408 c -4.893,-9.496 -13.596,-14.244 -26.113,-14.244 -9.496,0 -18.166,3.312 -26.006,9.927 -7.844,6.62 -11.762,15.829 -11.762,27.625 z"
           id="path9-35-5"
           style="fill:#666666;fill-opacity:1;stroke-miterlimit:10" />
        <path
           inkscape:connector-curvature="0"
           stroke-miterlimit="10"
           d="M 352.491,131.176 V 69.021 h 24.171 V 183.834 H 352.491 V 162.9 c -3.885,7.051 -9.246,12.591 -16.078,16.617 -6.835,4.029 -14.21,6.043 -22.121,6.043 -12.949,0 -23.416,-3.955 -31.401,-11.87 -7.985,-7.91 -11.978,-19.349 -11.978,-34.314 V 69.021 h 24.171 v 63.018 c 0,21.149 8.774,31.725 26.33,31.725 8.342,0 15.609,-2.769 21.797,-8.31 6.185,-5.536 9.28,-13.629 9.28,-24.278 z"
           id="path11-6-3"
           style="fill:#666666;fill-opacity:1;stroke-miterlimit:10" />
        <path
           inkscape:connector-curvature="0"
           stroke-miterlimit="10"
           d="m 426.083,88.445 v 58.27 c 0,5.47 1.437,9.819 4.316,13.057 2.876,3.237 6.906,4.856 12.085,4.856 5.18,0 10.144,-2.516 14.892,-7.554 l 9.927,17.049 c -8.491,7.628 -17.879,11.438 -28.164,11.438 -10.289,0 -19.066,-3.561 -26.33,-10.683 -7.267,-7.122 -10.898,-16.726 -10.898,-28.812 V 32.98 h 24.171 v 36.041 h 30.214 v 19.423 h -30.213 z"
           id="path13-2-5"
           style="fill:#666666;fill-opacity:1;stroke-miterlimit:10" />
        <path
           inkscape:connector-curvature="0"
           stroke-miterlimit="10"
           d="m 538.089,91.682 c -11.944,0 -20.935,3.885 -26.978,11.654 -6.042,7.77 -9.063,18.203 -9.063,31.293 v 49.205 H 477.877 V 69.021 h 24.171 v 23.092 c 3.885,-7.193 9.172,-13.091 15.862,-17.697 6.69,-4.603 13.774,-6.977 21.258,-7.122 l 0.216,24.387 c -0.431,0.001 -0.863,0.001 -1.295,0.001 z"
           id="path15-91-6"
           style="fill:#666666;fill-opacity:1;stroke-miterlimit:10" />
        <path
           inkscape:connector-curvature="0"
           stroke-miterlimit="10"
           d="m 562.905,46.146 c -3.021,-3.021 -4.531,-6.616 -4.531,-10.791 0,-4.171 1.511,-7.769 4.531,-10.791 3.021,-3.021 6.616,-4.532 10.791,-4.532 4.171,0 7.77,1.511 10.791,4.532 3.021,3.021 4.532,6.619 4.532,10.791 0,4.175 -1.511,7.77 -4.532,10.791 -3.021,3.021 -6.62,4.532 -10.791,4.532 -4.175,-10e-4 -7.77,-1.511 -10.791,-4.532 z m 22.661,137.688 H 561.394 V 69.021 h 24.172 z"
           id="path17-27-2"
           style="fill:#666666;fill-opacity:1;stroke-width:2;stroke-miterlimit:10" />
        <path
           inkscape:connector-curvature="0"
           stroke-miterlimit="10"
           d="m 642.538,121.68 v 62.154 H 618.366 V 69.021 h 24.172 v 20.934 c 3.885,-7.048 9.242,-12.588 16.078,-16.618 6.832,-4.026 14.206,-6.043 22.121,-6.043 12.948,0 23.415,3.959 31.4,11.87 7.985,7.914 11.978,19.352 11.978,34.314 v 70.355 h -24.171 v -63.018 c 0,-21.15 -8.777,-31.725 -26.329,-31.725 -8.346,0 -15.613,2.772 -21.798,8.309 -6.188,5.542 -9.279,13.636 -9.279,24.281 z"
           id="path19-0-9"
           style="fill:#666666;fill-opacity:1;stroke-width:2;stroke-miterlimit:10" />
        <path
           inkscape:connector-curvature="0"
           stroke-miterlimit="10"
           d="m 807.85,67.295 c 15.68,0 28.703,4.354 39.063,13.057 10.358,8.707 15.609,20.037 15.754,33.991 l 0.216,0.432 -83.735,35.178 c 7.479,9.209 17.659,13.813 30.537,13.813 12.875,0 23.487,-5.035 31.833,-15.107 l 14.243,15.755 c -13.67,14.102 -29.782,21.149 -48.342,21.149 -16.261,0 -30.214,-5.396 -41.868,-16.187 -11.653,-10.79 -17.48,-25.034 -17.48,-42.73 0,-12.228 3.021,-22.984 9.063,-32.264 6.043,-9.28 13.522,-16.112 22.445,-20.502 8.919,-4.39 18.343,-6.585 28.271,-6.585 z m -36.473,59.781 c 0,1.871 0.07,3.237 0.216,4.1 l 63.665,-27.408 c -4.893,-9.496 -13.597,-14.244 -26.113,-14.244 -9.496,0 -18.166,3.312 -26.006,9.927 -7.844,6.62 -11.762,15.829 -11.762,27.625 z"
           id="path21-9-1"
           style="fill:#666666;fill-opacity:1;stroke-width:2;stroke-miterlimit:10" />
        <path
           inkscape:connector-curvature="0"
           stroke-miterlimit="10"
           d="m 908.635,88.445 v 58.27 c 0,5.47 1.437,9.819 4.316,13.057 2.876,3.237 6.905,4.856 12.085,4.856 5.18,0 10.144,-2.516 14.892,-7.554 l 9.927,17.049 c -8.49,7.628 -17.878,11.438 -28.163,11.438 -10.288,0 -19.066,-3.561 -26.329,-10.683 -7.268,-7.122 -10.899,-16.726 -10.899,-28.812 V 32.98 h 24.172 v 36.041 h 30.214 v 19.423 h -30.215 z"
           id="path23-3-2"
           style="fill:#666666;fill-opacity:1;stroke-width:2;stroke-miterlimit:10" />
      </g>
      <g
         id="g25-6-7"
         style="fill:#666666;fill-opacity:1" />
      <g
         id="g27-0-0"
         style="fill:#666666;fill-opacity:1" />
      <g
         id="g29-62-9"
         style="fill:#666666;fill-opacity:1" />
      <g
         id="g31-6-3"
         style="fill:#666666;fill-opacity:1" />
      <g
         id="g33-1-6"
         style="fill:#666666;fill-opacity:1" />
      <g
         id="g35-8-0"
         style="fill:#666666;fill-opacity:1" />
      <g
         id="g37-7-6"
         style="fill:#666666;fill-opacity:1" />
      <g
         id="g39-9-2"
         style="fill:#666666;fill-opacity:1" />
      <g
         id="g41-2-6"
         style="fill:#666666;fill-opacity:1" />
      <g
         id="g43-0-1"
         style="fill:#666666;fill-opacity:1" />
      <g
         id="g45-2-8"
         style="fill:#666666;fill-opacity:1" />
      <g
         id="g47-3-7"
         style="fill:#666666;fill-opacity:1" />
      <g
         id="g49-7-9"
         style="fill:#666666;fill-opacity:1" />
      <g
         id="g51-59-2"
         style="fill:#666666;fill-opacity:1" />
      <g
         id="g53-2-0"
         style="fill:#666666;fill-opacity:1" />
    </g>
    <g
       style="display:inline;enable-background:new"
       id="g883"
       transform="matrix(0.13615526,0,0,0.13615526,-96.868834,-167.53545)"
       inkscape:export-filename="/home/tierce/NextCloudNeutrinet/Communication/Logos/exports/neutrinet_logo_text_wiki.png"
       inkscape:export-xdpi="21.680178"
       inkscape:export-ydpi="21.680178">
      <circle
         inkscape:export-ydpi="32.390244"
         inkscape:export-xdpi="32.390244"
         inkscape:export-filename="/home/tierce/NextCloudNeutrinet/Communication/Logos/neutrinet_logo_texte_et_N_dans_cercle.png"
         id="path7909-3-3-36-2"
         style="display:inline;fill:#ffffff;fill-opacity:1;stroke:#f4f4f4;stroke-width:4.07999992;stroke-miterlimit:4;stroke-dasharray:none;stroke-opacity:0.30737706;enable-background:new"
         cx="-1067.5889"
         cy="1579.6024"
         r="252.96001" />
      <circle
         r="248"
         cy="1579.6023"
         cx="-1067.5889"
         inkscape:export-ydpi="18.82"
         inkscape:export-xdpi="18.82"
         inkscape:export-filename="/home/tierce/NextCloudNeutrinet/Communication/Logos/exports/Neutrinet_text_98x98.png"
         id="path7909-3-3-37"
         style="display:inline;fill:#ffffff;fill-opacity:1;stroke:#000000;stroke-width:4;stroke-miterlimit:4;stroke-dasharray:none;stroke-opacity:0.30737706;enable-background:new" />
      <circle
         r="224"
         cy="1579.6023"
         cx="-1067.5889"
         inkscape:export-ydpi="32.390244"
         inkscape:export-xdpi="32.390244"
         inkscape:export-filename="/home/tierce/NextCloudNeutrinet/Communication/Logos/neutrinet_logo_texte_et_N_dans_cercle.png"
         id="path7909-1-5"
         style="display:inline;fill:none;stroke:#000000;stroke-width:8;stroke-miterlimit:4;stroke-dasharray:none;stroke-opacity:0.66393439;enable-background:new" />
      <circle
         r="196"
         cy="1579.6023"
         cx="-1067.5889"
         inkscape:export-ydpi="32.390244"
         inkscape:export-xdpi="32.390244"
         inkscape:export-filename="/home/tierce/NextCloudNeutrinet/Communication/Logos/neutrinet_logo_texte_et_N_dans_cercle.png"
         id="path7909-38-0-9"
         style="display:inline;fill:none;stroke:#000000;stroke-width:16;stroke-miterlimit:4;stroke-dasharray:none;stroke-opacity:1;enable-background:new" />
      <path
         inkscape:export-ydpi="32.390244"
         inkscape:export-xdpi="32.390244"
         inkscape:export-filename="/home/tierce/NextCloudNeutrinet/Communication/Logos/neutrinet_logo_texte_et_N_dans_cercle.png"
         sodipodi:nodetypes="ccccccccccccccccccccccccccccc"
         inkscape:connector-curvature="0"
         d="m -1117.7315,1575.0416 8.681,-34.6978 m -10.0731,137.531 1.3921,-102.8332 -55.5335,-7.8218 54.1414,110.655 -49.9835,-0.5232 -4.2083,-111.4646 64.1273,-25.1916 -65.0019,-23.6077 11.064,-55.2145 54.0755,78.4706 81.9509,136.34 h 45.85403 l 5.3597,-131.0118 -12.6439,-81.3379 -45.88813,-0.24 m 58.52883,81.6553 -54.04663,17.7022 36.05673,83.7913 12.6366,29.366 -45.85723,0.075 -2.708,-112.9359 -79.0316,-23.0525 -64.3329,25.2151 -1.0179,-48.8229 11.1198,-55.4931 133.2942,102.2265 -4.6441,-99.7698"
         style="display:inline;fill:none;stroke:#cccccc;stroke-width:3.12817073;stroke-linecap:butt;stroke-linejoin:miter;stroke-miterlimit:4;stroke-dasharray:none;stroke-opacity:1;enable-background:new"
         id="path5210-1-2-6-2" />
      <path
         inkscape:export-ydpi="32.390244"
         inkscape:export-xdpi="32.390244"
         inkscape:export-filename="/home/tierce/NextCloudNeutrinet/Communication/Logos/neutrinet_logo_texte_et_N_dans_cercle.png"
         inkscape:connector-curvature="0"
         id="path3072-0-9-4-2"
         d="m -1028.5647,1563.0026 40.04223,-98.6205"
         style="color:#000000;display:inline;overflow:visible;visibility:visible;fill:none;stroke:#cccccc;stroke-width:3.12817073;stroke-linecap:butt;stroke-linejoin:miter;stroke-miterlimit:4;stroke-dasharray:none;stroke-dashoffset:0;stroke-opacity:1;marker:none;enable-background:accumulate" />
      <path
         inkscape:export-ydpi="32.390244"
         inkscape:export-xdpi="32.390244"
         inkscape:export-filename="/home/tierce/NextCloudNeutrinet/Communication/Logos/neutrinet_logo_texte_et_N_dans_cercle.png"
         sodipodi:nodetypes="ccc"
         inkscape:connector-curvature="0"
         id="path3091-6-3-3-8"
         d="m -1167.8653,1677.3645 50.7124,-104.6359 -45.9173,-111.134"
         style="color:#000000;display:inline;overflow:visible;visibility:visible;fill:none;stroke:#cccccc;stroke-width:3.12817073;stroke-linecap:butt;stroke-linejoin:miter;stroke-miterlimit:4;stroke-dasharray:none;stroke-dashoffset:0;stroke-opacity:1;marker:none;enable-background:accumulate" />
      <path
         inkscape:export-ydpi="32.390244"
         inkscape:export-xdpi="32.390244"
         inkscape:export-filename="/home/tierce/NextCloudNeutrinet/Communication/Logos/neutrinet_logo_texte_et_N_dans_cercle.png"
         sodipodi:nodetypes="ccccc"
         inkscape:connector-curvature="0"
         id="path3099-3-9-3-9"
         d="m -1032.0033,1464.1067 54.20613,82.2677 -49.71683,129.6271 -35.6501,-58.6984 81.94653,58.6975"
         style="color:#000000;display:inline;overflow:visible;visibility:visible;fill:none;stroke:#cccccc;stroke-width:3.12817073;stroke-linecap:butt;stroke-linejoin:miter;stroke-miterlimit:4;stroke-dasharray:none;stroke-dashoffset:0;stroke-opacity:1;marker:none;enable-background:accumulate" />
      <path
         inkscape:export-ydpi="32.390244"
         inkscape:export-xdpi="32.390244"
         inkscape:export-filename="/home/tierce/NextCloudNeutrinet/Communication/Logos/neutrinet_logo_texte_et_N_dans_cercle.png"
         inkscape:connector-curvature="0"
         id="path4249-2-0-3-7"
         d="m -1173.3079,1566.0875 67.7772,-94.3167"
         style="color:#000000;display:inline;overflow:visible;visibility:visible;fill:none;stroke:#cccccc;stroke-width:3.12817073;stroke-linecap:butt;stroke-linejoin:miter;stroke-miterlimit:4;stroke-dasharray:none;stroke-dashoffset:0;stroke-opacity:1;marker:none;enable-background:accumulate" />
      <path
         inkscape:export-ydpi="32.390244"
         inkscape:export-xdpi="32.390244"
         inkscape:export-filename="/home/tierce/NextCloudNeutrinet/Communication/Logos/neutrinet_logo_texte_et_N_dans_cercle.png"
         inkscape:connector-curvature="0"
         id="path4257-0-8-8-3"
         d="m -1060.4589,1621.7574 84.55553,-76.1983"
         style="color:#000000;display:inline;overflow:visible;visibility:visible;fill:none;stroke:#cccccc;stroke-width:3.12817073;stroke-linecap:butt;stroke-linejoin:miter;stroke-miterlimit:4;stroke-dasharray:none;stroke-dashoffset:0;stroke-opacity:1;marker:none;enable-background:accumulate" />
      <path
         inkscape:export-ydpi="32.390244"
         inkscape:export-xdpi="32.390244"
         inkscape:export-filename="/home/tierce/NextCloudNeutrinet/Communication/Logos/neutrinet_logo_texte_et_N_dans_cercle.png"
         sodipodi:nodetypes="cccccc"
         inkscape:connector-curvature="0"
         id="path3194-6-8-6-6"
         d="m -1163.0702,1461.5946 57.5394,10.1762 74.2565,92.0622 -29.2098,57.883 -45.6788,-149.3132 -1.4213,68.6587"
         style="color:#000000;display:inline;overflow:visible;visibility:visible;fill:none;stroke:#cccccc;stroke-width:3.12817049;stroke-linecap:butt;stroke-linejoin:miter;stroke-miterlimit:4;stroke-dasharray:none;stroke-dashoffset:0;stroke-opacity:1;marker:none;enable-background:accumulate" />
      <circle
         r="5.7662129"
         cy="1461.8755"
         cx="-1163.3824"
         inkscape:export-ydpi="32.390244"
         inkscape:export-xdpi="32.390244"
         inkscape:export-filename="/home/tierce/NextCloudNeutrinet/Communication/Logos/neutrinet_logo_texte_et_N_dans_cercle.png"
         id="path7147-33-0-1-5-0-1"
         style="display:inline;fill:#000000;fill-opacity:1;stroke:#cccccc;stroke-width:0.89376301;stroke-opacity:1;enable-background:new" />
      <circle
         r="5.7662129"
         cy="1518.2513"
         cx="-1173.9844"
         inkscape:export-ydpi="32.390244"
         inkscape:export-xdpi="32.390244"
         inkscape:export-filename="/home/tierce/NextCloudNeutrinet/Communication/Logos/neutrinet_logo_texte_et_N_dans_cercle.png"
         id="path7147-33-1-5-0-4-2"
         style="display:inline;fill:#ffffff;fill-opacity:0.94117647;stroke:#cccccc;stroke-width:0.89376301;stroke-opacity:1;enable-background:new" />
      <circle
         r="5.7662129"
         cy="1540.8829"
         cx="-1109.4537"
         inkscape:export-ydpi="32.390244"
         inkscape:export-xdpi="32.390244"
         inkscape:export-filename="/home/tierce/NextCloudNeutrinet/Communication/Logos/neutrinet_logo_texte_et_N_dans_cercle.png"
         id="path7147-33-7-5-9-8-9"
         style="display:inline;fill:#666666;fill-opacity:1;stroke:#cccccc;stroke-width:0.89376301;stroke-opacity:1;enable-background:new" />
      <circle
         r="5.7662129"
         cy="1563.7671"
         cx="-1029.8571"
         inkscape:export-ydpi="32.390244"
         inkscape:export-xdpi="32.390244"
         inkscape:export-filename="/home/tierce/NextCloudNeutrinet/Communication/Logos/neutrinet_logo_texte_et_N_dans_cercle.png"
         id="path7147-33-6-4-6-8-3"
         style="display:inline;fill:#666666;fill-opacity:1;stroke:#cccccc;stroke-width:0.89376301;stroke-opacity:1;enable-background:new" />
      <circle
         r="5.7662129"
         cy="1463.8092"
         cx="-1034.5062"
         inkscape:export-ydpi="32.390244"
         inkscape:export-xdpi="32.390244"
         inkscape:export-filename="/home/tierce/NextCloudNeutrinet/Communication/Logos/neutrinet_logo_texte_et_N_dans_cercle.png"
         id="path7147-33-2-7-3-8-1"
         style="display:inline;fill:#666666;fill-opacity:1;stroke:#cccccc;stroke-width:0.89376301;stroke-opacity:1;enable-background:new" />
      <circle
         r="5.7662129"
         cy="1464.4601"
         cx="-988.47906"
         inkscape:export-ydpi="32.390244"
         inkscape:export-xdpi="32.390244"
         inkscape:export-filename="/home/tierce/NextCloudNeutrinet/Communication/Logos/neutrinet_logo_texte_et_N_dans_cercle.png"
         id="path7147-33-13-6-8-9-9"
         style="display:inline;fill:#ababab;fill-opacity:1;stroke:#bbbbbb;stroke-width:0.89376301;stroke-opacity:1;enable-background:new" />
      <circle
         r="5.7662129"
         cy="1546.4623"
         cx="-976.58966"
         inkscape:export-ydpi="32.390244"
         inkscape:export-xdpi="32.390244"
         inkscape:export-filename="/home/tierce/NextCloudNeutrinet/Communication/Logos/neutrinet_logo_texte_et_N_dans_cercle.png"
         id="path7147-33-4-5-5-7-4"
         style="display:inline;fill:#666666;fill-opacity:1;stroke:#cccccc;stroke-width:0.89376301;stroke-opacity:1;enable-background:new" />
      <circle
         r="5.7662129"
         cy="1676.6838"
         cx="-982.05316"
         inkscape:export-ydpi="32.390244"
         inkscape:export-xdpi="32.390244"
         inkscape:export-filename="/home/tierce/NextCloudNeutrinet/Communication/Logos/neutrinet_logo_texte_et_N_dans_cercle.png"
         id="path7147-33-70-6-6-7-7"
         style="display:inline;fill:#818181;fill-opacity:1;stroke:#cccccc;stroke-width:0.89376301;stroke-opacity:1;enable-background:new" />
      <circle
         r="5.7662129"
         cy="1677.2103"
         cx="-1027.2253"
         inkscape:export-ydpi="32.390244"
         inkscape:export-xdpi="32.390244"
         inkscape:export-filename="/home/tierce/NextCloudNeutrinet/Communication/Logos/neutrinet_logo_texte_et_N_dans_cercle.png"
         id="path7147-33-77-9-1-6-8"
         style="display:inline;fill:#444444;fill-opacity:1;stroke:#cccccc;stroke-width:0.89376301;stroke-opacity:1;enable-background:new" />
      <circle
         r="5.7662129"
         cy="1677.9701"
         cx="-1119.3657"
         inkscape:export-ydpi="32.390244"
         inkscape:export-xdpi="32.390244"
         inkscape:export-filename="/home/tierce/NextCloudNeutrinet/Communication/Logos/neutrinet_logo_texte_et_N_dans_cercle.png"
         id="path7147-33-00-3-1-4-4"
         style="display:inline;fill:#000000;fill-opacity:1;stroke:#cccccc;stroke-width:0.89376301;stroke-opacity:1;enable-background:new" />
      <circle
         r="5.7662129"
         cy="1677.1426"
         cx="-1168.7543"
         inkscape:export-ydpi="32.390244"
         inkscape:export-xdpi="32.390244"
         inkscape:export-filename="/home/tierce/NextCloudNeutrinet/Communication/Logos/neutrinet_logo_texte_et_N_dans_cercle.png"
         id="path7147-33-66-7-5-3-5"
         style="display:inline;fill:#666666;fill-opacity:1;stroke:#cccccc;stroke-width:0.89376301;stroke-opacity:1;enable-background:new" />
      <circle
         r="5.7662129"
         cy="1565.8446"
         cx="-1173.0996"
         inkscape:export-ydpi="32.390244"
         inkscape:export-xdpi="32.390244"
         inkscape:export-filename="/home/tierce/NextCloudNeutrinet/Communication/Logos/neutrinet_logo_texte_et_N_dans_cercle.png"
         id="path7147-33-5-4-9-0-0"
         style="display:inline;fill:#a0a0a0;fill-opacity:1;stroke:#cccccc;stroke-width:0.89376301;stroke-opacity:1;enable-background:new" />
      <circle
         r="5.7662129"
         cy="1574.7559"
         cx="-1117.806"
         inkscape:export-ydpi="32.390244"
         inkscape:export-xdpi="32.390244"
         inkscape:export-filename="/home/tierce/NextCloudNeutrinet/Communication/Logos/neutrinet_logo_texte_et_N_dans_cercle.png"
         id="path7147-33-11-5-8-3-3"
         style="display:inline;fill:#cccccc;fill-opacity:1;stroke:#cccccc;stroke-width:0.89376301;stroke-opacity:1;enable-background:new" />
      <circle
         r="5.7662129"
         cy="1621.2732"
         cx="-1060.926"
         inkscape:export-ydpi="32.390244"
         inkscape:export-xdpi="32.390244"
         inkscape:export-filename="/home/tierce/NextCloudNeutrinet/Communication/Logos/neutrinet_logo_texte_et_N_dans_cercle.png"
         id="path7147-33-0-4-2-4-0-6"
         style="display:inline;fill:#ffffff;fill-opacity:1;stroke:#cccccc;stroke-width:0.89376301;stroke-opacity:1;enable-background:new" />
      <circle
         r="5.7662129"
         cy="1472.2391"
         cx="-1106.1909"
         inkscape:export-ydpi="32.390244"
         inkscape:export-xdpi="32.390244"
         inkscape:export-filename="/home/tierce/NextCloudNeutrinet/Communication/Logos/neutrinet_logo_texte_et_N_dans_cercle.png"
         id="path7147-33-0-0-5-8-9-1"
         style="display:inline;fill:#666666;fill-opacity:1;stroke:#cccccc;stroke-width:0.89376301;stroke-opacity:1;enable-background:new" />
      <circle
         r="258.14145"
         cy="1579.6023"
         cx="-1067.5889"
         inkscape:export-ydpi="32.390244"
         inkscape:export-xdpi="32.390244"
         inkscape:export-filename="/home/tierce/NextCloudNeutrinet/Communication/Logos/neutrinet_logo_texte_et_N_dans_cercle.png"
         id="path7909-3-3-3-6"
         style="display:inline;fill:none;stroke:none;stroke-width:1.03973639;enable-background:new" />
    </g>
  </g>
</svg>
